<?xml version="1.0" encoding="UTF-8" standalone="no"?>
<!DOCTYPE svg PUBLIC "-//W3C//DTD SVG 1.1//EN"
 "http://www.w3.org/Graphics/SVG/1.1/DTD/svg11.dtd">
<!-- Generated by graphviz version 2.38.0 (20140413.2041)
 -->
<!-- Title: %3 Pages: 1 -->
<svg width="2873pt" height="332pt"
 viewBox="0.00 0.00 2872.50 332.00" xmlns="http://www.w3.org/2000/svg" xmlns:xlink="http://www.w3.org/1999/xlink">
<g id="graph0" class="graph" transform="scale(1 1) rotate(0) translate(4 328)">
<title>%3</title>
<polygon fill="white" stroke="none" points="-4,4 -4,-328 2868.5,-328 2868.5,4 -4,4"/>
<!-- alice.tuplecentre.tucson.introspection.Inspector -->
<g id="node1" class="node"><title>alice.tuplecentre.tucson.introspection.Inspector</title>
<ellipse fill="blue" stroke="red" cx="1409.53" cy="-90" rx="182.768" ry="18"/>
<text text-anchor="middle" x="1409.53" y="-86.3" font-family="Times New Roman,serif" font-size="14.00">alice.tuplecentre.tucson.introspection.Inspector</text>
</g>
<!-- alice.tuplecentre.tucson.introspection.InspectorContextStub -->
<g id="node2" class="node"><title>alice.tuplecentre.tucson.introspection.InspectorContextStub</title>
<ellipse fill="blue" stroke="red" cx="1409.53" cy="-18" rx="228.26" ry="18"/>
<text text-anchor="middle" x="1409.53" y="-14.3" font-family="Times New Roman,serif" font-size="14.00">alice.tuplecentre.tucson.introspection.InspectorContextStub</text>
</g>
<!-- alice.tuplecentre.tucson.introspection.Inspector&#45;&gt;alice.tuplecentre.tucson.introspection.InspectorContextStub -->
<g id="edge1" class="edge"><title>alice.tuplecentre.tucson.introspection.Inspector&#45;&gt;alice.tuplecentre.tucson.introspection.InspectorContextStub</title>
<path fill="none" stroke="black" d="M1403.61,-71.6966C1402.82,-63.9827 1402.59,-54.7125 1402.93,-46.1124"/>
<polygon fill="black" stroke="black" points="1406.43,-46.3243 1403.63,-36.1043 1399.45,-45.8356 1406.43,-46.3243"/>
</g>
<!-- alice.tuplecentre.tucson.introspection.InspectorContextStub&#45;&gt;alice.tuplecentre.tucson.introspection.Inspector -->
<g id="edge2" class="edge"><title>alice.tuplecentre.tucson.introspection.InspectorContextStub&#45;&gt;alice.tuplecentre.tucson.introspection.Inspector</title>
<path fill="none" stroke="black" d="M1415.43,-36.1043C1416.23,-43.7913 1416.47,-53.0537 1416.13,-61.6651"/>
<polygon fill="black" stroke="black" points="1412.64,-61.4805 1415.45,-71.6966 1419.62,-61.9597 1412.64,-61.4805"/>
</g>
<!-- alice.tuplecentre.tucson.introspection.InspectorProfile -->
<g id="node3" class="node"><title>alice.tuplecentre.tucson.introspection.InspectorProfile</title>
<ellipse fill="blue" stroke="red" cx="2127.53" cy="-162" rx="206.063" ry="18"/>
<text text-anchor="middle" x="2127.53" y="-158.3" font-family="Times New Roman,serif" font-size="14.00">alice.tuplecentre.tucson.introspection.InspectorProfile</text>
</g>
<!-- alice.tuplecentre.tucson.introspection.InspectorProfile&#45;&gt;alice.tuplecentre.tucson.introspection.Inspector -->
<g id="edge3" class="edge"><title>alice.tuplecentre.tucson.introspection.InspectorProfile&#45;&gt;alice.tuplecentre.tucson.introspection.Inspector</title>
<path fill="none" stroke="black" d="M1995.42,-148.12C1867.13,-135.613 1673.34,-116.719 1544.19,-104.128"/>
<polygon fill="black" stroke="black" points="1544.52,-100.644 1534.23,-103.157 1543.84,-107.611 1544.52,-100.644"/>
</g>
<!-- alice.tuplecentre.tucson.introspection.tools.EditSpec -->
<g id="node4" class="node"><title>alice.tuplecentre.tucson.introspection.tools.EditSpec</title>
<ellipse fill="blue" stroke="red" cx="1530.53" cy="-234" rx="201.464" ry="18"/>
<text text-anchor="middle" x="1530.53" y="-230.3" font-family="Times New Roman,serif" font-size="14.00">alice.tuplecentre.tucson.introspection.tools.EditSpec</text>
</g>
<!-- alice.tuplecentre.tucson.introspection.tools.EditSpec&#45;&gt;alice.tuplecentre.tucson.introspection.Inspector -->
<g id="edge4" class="edge"><title>alice.tuplecentre.tucson.introspection.tools.EditSpec&#45;&gt;alice.tuplecentre.tucson.introspection.Inspector</title>
<path fill="none" stroke="black" d="M1478.66,-216.596C1460.3,-208.353 1441.11,-196.51 1428.53,-180 1415.1,-162.372 1410.68,-137.346 1409.44,-118.319"/>
<polygon fill="black" stroke="black" points="1412.93,-118.031 1409.03,-108.181 1405.93,-118.314 1412.93,-118.031"/>
</g>
<!-- alice.tuplecentre.tucson.introspection.tools.SpecWorker -->
<g id="node9" class="node"><title>alice.tuplecentre.tucson.introspection.tools.SpecWorker</title>
<ellipse fill="blue" stroke="red" cx="1651.53" cy="-162" rx="214.462" ry="18"/>
<text text-anchor="middle" x="1651.53" y="-158.3" font-family="Times New Roman,serif" font-size="14.00">alice.tuplecentre.tucson.introspection.tools.SpecWorker</text>
</g>
<!-- alice.tuplecentre.tucson.introspection.tools.EditSpec&#45;&gt;alice.tuplecentre.tucson.introspection.tools.SpecWorker -->
<g id="edge5" class="edge"><title>alice.tuplecentre.tucson.introspection.tools.EditSpec&#45;&gt;alice.tuplecentre.tucson.introspection.tools.SpecWorker</title>
<path fill="none" stroke="black" d="M1553.94,-216.055C1569.15,-206.683 1589.32,-194.932 1607.41,-184.873"/>
<polygon fill="black" stroke="black" points="1609.57,-187.678 1616.65,-179.789 1606.2,-181.545 1609.57,-187.678"/>
</g>
<!-- alice.tuplecentre.tucson.introspection.tools.EventViewer -->
<g id="node5" class="node"><title>alice.tuplecentre.tucson.introspection.tools.EventViewer</title>
<ellipse fill="blue" stroke="red" cx="1167.53" cy="-162" rx="213.662" ry="18"/>
<text text-anchor="middle" x="1167.53" y="-158.3" font-family="Times New Roman,serif" font-size="14.00">alice.tuplecentre.tucson.introspection.tools.EventViewer</text>
</g>
<!-- alice.tuplecentre.tucson.introspection.tools.EventViewer&#45;&gt;alice.tuplecentre.tucson.introspection.Inspector -->
<g id="edge6" class="edge"><title>alice.tuplecentre.tucson.introspection.tools.EventViewer&#45;&gt;alice.tuplecentre.tucson.introspection.Inspector</title>
<path fill="none" stroke="black" d="M1224.27,-144.588C1260.05,-134.239 1306.39,-120.834 1343.77,-110.021"/>
<polygon fill="black" stroke="black" points="1344.93,-113.329 1353.57,-107.188 1342.99,-106.605 1344.93,-113.329"/>
</g>
<!-- alice.tuplecentre.tucson.introspection.tools.InspectorGUI -->
<g id="node7" class="node"><title>alice.tuplecentre.tucson.introspection.tools.InspectorGUI</title>
<ellipse fill="blue" stroke="red" cx="860.53" cy="-306" rx="219.061" ry="18"/>
<text text-anchor="middle" x="860.53" y="-302.3" font-family="Times New Roman,serif" font-size="14.00">alice.tuplecentre.tucson.introspection.tools.InspectorGUI</text>
</g>
<!-- alice.tuplecentre.tucson.introspection.tools.EventViewer&#45;&gt;alice.tuplecentre.tucson.introspection.tools.InspectorGUI -->
<g id="edge7" class="edge"><title>alice.tuplecentre.tucson.introspection.tools.EventViewer&#45;&gt;alice.tuplecentre.tucson.introspection.tools.InspectorGUI</title>
<path fill="none" stroke="black" d="M1135.63,-179.863C1082.12,-205.9 974.306,-255.831 910.633,-284.115"/>
<polygon fill="black" stroke="black" points="908.918,-281.046 901.189,-288.293 911.75,-287.448 908.918,-281.046"/>
</g>
<!-- alice.tuplecentre.tucson.introspection.tools.InspectorCore -->
<g id="node6" class="node"><title>alice.tuplecentre.tucson.introspection.tools.InspectorCore</title>
<ellipse fill="blue" stroke="red" cx="602.53" cy="-234" rx="220.961" ry="18"/>
<text text-anchor="middle" x="602.53" y="-230.3" font-family="Times New Roman,serif" font-size="14.00">alice.tuplecentre.tucson.introspection.tools.InspectorCore</text>
</g>
<!-- alice.tuplecentre.tucson.introspection.tools.InspectorCore&#45;&gt;alice.tuplecentre.tucson.introspection.Inspector -->
<g id="edge8" class="edge"><title>alice.tuplecentre.tucson.introspection.tools.InspectorCore&#45;&gt;alice.tuplecentre.tucson.introspection.Inspector</title>
<path fill="none" stroke="black" d="M544.167,-216.582C526.398,-208.549 508.853,-196.847 498.53,-180 490.17,-166.357 487.55,-155.638 498.53,-144 523.031,-118.033 964.806,-102.355 1224,-95.3521"/>
<polygon fill="black" stroke="black" points="1224.39,-98.8431 1234.29,-95.0761 1224.2,-91.8456 1224.39,-98.8431"/>
</g>
<!-- alice.tuplecentre.tucson.introspection.tools.InspectorCore&#45;&gt;alice.tuplecentre.tucson.introspection.tools.EventViewer -->
<g id="edge11" class="edge"><title>alice.tuplecentre.tucson.introspection.tools.InspectorCore&#45;&gt;alice.tuplecentre.tucson.introspection.tools.EventViewer</title>
<path fill="none" stroke="black" d="M718.571,-218.623C812.923,-206.934 945.783,-190.473 1042.48,-178.493"/>
<polygon fill="black" stroke="black" points="1043.11,-181.941 1052.61,-177.238 1042.25,-174.994 1043.11,-181.941"/>
</g>
<!-- alice.tuplecentre.tucson.introspection.tools.InspectorCore&#45;&gt;alice.tuplecentre.tucson.introspection.tools.InspectorGUI -->
<g id="edge9" class="edge"><title>alice.tuplecentre.tucson.introspection.tools.InspectorCore&#45;&gt;alice.tuplecentre.tucson.introspection.tools.InspectorGUI</title>
<path fill="none" stroke="black" d="M668.296,-251.269C707.462,-261.582 756.909,-274.971 795.876,-285.804"/>
<polygon fill="black" stroke="black" points="794.972,-289.185 805.545,-288.5 796.852,-282.443 794.972,-289.185"/>
</g>
<!-- alice.tuplecentre.tucson.introspection.tools.ReactionViewer -->
<g id="node8" class="node"><title>alice.tuplecentre.tucson.introspection.tools.ReactionViewer</title>
<ellipse fill="blue" stroke="red" cx="225.53" cy="-162" rx="225.56" ry="18"/>
<text text-anchor="middle" x="225.53" y="-158.3" font-family="Times New Roman,serif" font-size="14.00">alice.tuplecentre.tucson.introspection.tools.ReactionViewer</text>
</g>
<!-- alice.tuplecentre.tucson.introspection.tools.InspectorCore&#45;&gt;alice.tuplecentre.tucson.introspection.tools.ReactionViewer -->
<g id="edge12" class="edge"><title>alice.tuplecentre.tucson.introspection.tools.InspectorCore&#45;&gt;alice.tuplecentre.tucson.introspection.tools.ReactionViewer</title>
<path fill="none" stroke="black" d="M517.924,-217.291C459.212,-206.389 380.945,-191.857 320.162,-180.571"/>
<polygon fill="black" stroke="black" points="320.65,-177.102 310.179,-178.717 319.372,-183.984 320.65,-177.102"/>
</g>
<!-- alice.tuplecentre.tucson.introspection.tools.TupleViewer -->
<g id="node10" class="node"><title>alice.tuplecentre.tucson.introspection.tools.TupleViewer</title>
<ellipse fill="blue" stroke="red" cx="721.53" cy="-162" rx="214.462" ry="18"/>
<text text-anchor="middle" x="721.53" y="-158.3" font-family="Times New Roman,serif" font-size="14.00">alice.tuplecentre.tucson.introspection.tools.TupleViewer</text>
</g>
<!-- alice.tuplecentre.tucson.introspection.tools.InspectorCore&#45;&gt;alice.tuplecentre.tucson.introspection.tools.TupleViewer -->
<g id="edge10" class="edge"><title>alice.tuplecentre.tucson.introspection.tools.InspectorCore&#45;&gt;alice.tuplecentre.tucson.introspection.tools.TupleViewer</title>
<path fill="none" stroke="black" d="M631.337,-216.055C647.007,-206.837 666.589,-195.319 683.498,-185.371"/>
<polygon fill="black" stroke="black" points="685.731,-188.119 692.576,-180.032 682.182,-182.085 685.731,-188.119"/>
</g>
<!-- alice.tuplecentre.tucson.introspection.tools.InspectorGUI&#45;&gt;alice.tuplecentre.tucson.introspection.Inspector -->
<g id="edge13" class="edge"><title>alice.tuplecentre.tucson.introspection.tools.InspectorGUI&#45;&gt;alice.tuplecentre.tucson.introspection.Inspector</title>
<path fill="none" stroke="black" d="M1079.43,-305.202C1576.39,-304.834 2752.56,-298.975 2824.53,-252 2854.16,-232.657 2850.79,-214.531 2858.53,-180 2862.03,-164.388 2869.64,-155.519 2858.53,-144 2815.65,-99.5271 1986.37,-92.0954 1602.06,-91.0473"/>
<polygon fill="black" stroke="black" points="1601.95,-87.5471 1591.94,-91.0209 1601.93,-94.5471 1601.95,-87.5471"/>
</g>
<!-- alice.tuplecentre.tucson.introspection.tools.InspectorGUI&#45;&gt;alice.tuplecentre.tucson.introspection.tools.EditSpec -->
<g id="edge16" class="edge"><title>alice.tuplecentre.tucson.introspection.tools.InspectorGUI&#45;&gt;alice.tuplecentre.tucson.introspection.tools.EditSpec</title>
<path fill="none" stroke="black" d="M990.11,-291.462C1106.45,-279.307 1276.63,-261.527 1394.82,-249.179"/>
<polygon fill="black" stroke="black" points="1395.43,-252.634 1405.02,-248.113 1394.71,-245.672 1395.43,-252.634"/>
</g>
<!-- alice.tuplecentre.tucson.introspection.tools.InspectorGUI&#45;&gt;alice.tuplecentre.tucson.introspection.tools.EventViewer -->
<g id="edge14" class="edge"><title>alice.tuplecentre.tucson.introspection.tools.InspectorGUI&#45;&gt;alice.tuplecentre.tucson.introspection.tools.EventViewer</title>
<path fill="none" stroke="black" d="M892.398,-288.153C945.813,-262.158 1053.43,-212.32 1117.15,-184.009"/>
<polygon fill="black" stroke="black" points="1118.87,-187.073 1126.6,-179.825 1116.04,-180.672 1118.87,-187.073"/>
</g>
<!-- alice.tuplecentre.tucson.introspection.tools.InspectorGUI&#45;&gt;alice.tuplecentre.tucson.introspection.tools.InspectorCore -->
<g id="edge18" class="edge"><title>alice.tuplecentre.tucson.introspection.tools.InspectorGUI&#45;&gt;alice.tuplecentre.tucson.introspection.tools.InspectorCore</title>
<path fill="none" stroke="black" d="M794.89,-288.765C755.721,-278.451 706.234,-265.051 667.232,-254.209"/>
<polygon fill="black" stroke="black" points="668.128,-250.826 657.555,-251.511 666.248,-257.568 668.128,-250.826"/>
</g>
<!-- alice.tuplecentre.tucson.introspection.tools.InspectorGUI&#45;&gt;alice.tuplecentre.tucson.introspection.tools.ReactionViewer -->
<g id="edge15" class="edge"><title>alice.tuplecentre.tucson.introspection.tools.InspectorGUI&#45;&gt;alice.tuplecentre.tucson.introspection.tools.ReactionViewer</title>
<path fill="none" stroke="black" d="M688.949,-294.805C569.559,-286.053 421.803,-271.719 363.53,-252 319.67,-237.158 274.961,-207.6 248.559,-186.625"/>
<polygon fill="black" stroke="black" points="250.607,-183.778 240.654,-180.146 246.169,-189.192 250.607,-183.778"/>
</g>
<!-- alice.tuplecentre.tucson.introspection.tools.InspectorGUI&#45;&gt;alice.tuplecentre.tucson.introspection.tools.TupleViewer -->
<g id="edge17" class="edge"><title>alice.tuplecentre.tucson.introspection.tools.InspectorGUI&#45;&gt;alice.tuplecentre.tucson.introspection.tools.TupleViewer</title>
<path fill="none" stroke="black" d="M852.747,-287.964C847.855,-268.455 841.372,-236.547 823.53,-216 811.591,-202.252 795.292,-191.782 779.193,-183.932"/>
<polygon fill="black" stroke="black" points="780.321,-180.599 769.772,-179.608 777.401,-186.961 780.321,-180.599"/>
</g>
<!-- alice.tuplecentre.tucson.introspection.tools.ReactionViewer&#45;&gt;alice.tuplecentre.tucson.introspection.Inspector -->
<g id="edge19" class="edge"><title>alice.tuplecentre.tucson.introspection.tools.ReactionViewer&#45;&gt;alice.tuplecentre.tucson.introspection.Inspector</title>
<path fill="none" stroke="black" d="M385.912,-149.313C412.501,-147.469 439.788,-145.634 465.53,-144 737.313,-126.746 1053.3,-109.596 1242.05,-99.6614"/>
<polygon fill="black" stroke="black" points="1242.26,-103.156 1252.06,-99.1351 1241.89,-96.1652 1242.26,-103.156"/>
</g>
<!-- alice.tuplecentre.tucson.introspection.tools.ReactionViewer&#45;&gt;alice.tuplecentre.tucson.introspection.tools.InspectorGUI -->
<g id="edge20" class="edge"><title>alice.tuplecentre.tucson.introspection.tools.ReactionViewer&#45;&gt;alice.tuplecentre.tucson.introspection.tools.InspectorGUI</title>
<path fill="none" stroke="black" d="M252.933,-179.964C282.985,-200.829 332.782,-235.504 381.53,-252 436.724,-270.677 572.197,-284.524 685.063,-293.371"/>
<polygon fill="black" stroke="black" points="684.977,-296.875 695.218,-294.158 685.518,-289.896 684.977,-296.875"/>
</g>
<!-- alice.tuplecentre.tucson.introspection.tools.SpecWorker&#45;&gt;alice.tuplecentre.tucson.introspection.tools.EditSpec -->
<g id="edge21" class="edge"><title>alice.tuplecentre.tucson.introspection.tools.SpecWorker&#45;&gt;alice.tuplecentre.tucson.introspection.tools.EditSpec</title>
<path fill="none" stroke="black" d="M1627.84,-180.116C1612.64,-189.475 1592.57,-201.166 1574.56,-211.174"/>
<polygon fill="black" stroke="black" points="1572.44,-208.345 1565.37,-216.233 1575.82,-214.477 1572.44,-208.345"/>
</g>
<!-- alice.tuplecentre.tucson.introspection.tools.TupleViewer&#45;&gt;alice.tuplecentre.tucson.introspection.Inspector -->
<g id="edge22" class="edge"><title>alice.tuplecentre.tucson.introspection.tools.TupleViewer&#45;&gt;alice.tuplecentre.tucson.introspection.Inspector</title>
<path fill="none" stroke="black" d="M852.151,-147.71C974.021,-135.31 1154.94,-116.903 1277.32,-104.451"/>
<polygon fill="black" stroke="black" points="1277.91,-107.91 1287.5,-103.416 1277.2,-100.946 1277.91,-107.91"/>
</g>
<!-- alice.tuplecentre.tucson.introspection.tools.TupleViewer&#45;&gt;alice.tuplecentre.tucson.introspection.tools.InspectorGUI -->
<g id="edge23" class="edge"><title>alice.tuplecentre.tucson.introspection.tools.TupleViewer&#45;&gt;alice.tuplecentre.tucson.introspection.tools.InspectorGUI</title>
<path fill="none" stroke="black" d="M785.747,-179.249C806.121,-187.454 827.038,-199.312 841.53,-216 856.515,-233.256 863.487,-258.526 865.221,-277.734"/>
<polygon fill="black" stroke="black" points="861.734,-278.124 865.66,-287.964 868.728,-277.823 861.734,-278.124"/>
</g>
<!-- alice.tuplecentre.tucson.introspection4gui.Inspector4Gui -->
<g id="node11" class="node"><title>alice.tuplecentre.tucson.introspection4gui.Inspector4Gui</title>
<ellipse fill="blue" stroke="red" cx="2600.53" cy="-234" rx="215.262" ry="18"/>
<text text-anchor="middle" x="2600.53" y="-230.3" font-family="Times New Roman,serif" font-size="14.00">alice.tuplecentre.tucson.introspection4gui.Inspector4Gui</text>
</g>
<!-- alice.tuplecentre.tucson.introspection4gui.Inspector4Gui&#45;&gt;alice.tuplecentre.tucson.introspection.Inspector -->
<g id="edge24" class="edge"><title>alice.tuplecentre.tucson.introspection4gui.Inspector4Gui&#45;&gt;alice.tuplecentre.tucson.introspection.Inspector</title>
<path fill="none" stroke="black" d="M2386.59,-232.009C2216.75,-228.375 1994.66,-216.442 1912.53,-180 1891.27,-170.564 1895.62,-153.824 1874.53,-144 1823.46,-120.212 1691.28,-106.643 1580.84,-99.2033"/>
<polygon fill="black" stroke="black" points="1580.78,-95.6913 1570.57,-98.5243 1580.31,-102.676 1580.78,-95.6913"/>
</g>
<!-- alice.tuplecentre.tucson.introspection4gui.Inspector4GuiObserver -->
<g id="node12" class="node"><title>alice.tuplecentre.tucson.introspection4gui.Inspector4GuiObserver</title>
<ellipse fill="blue" stroke="red" cx="2600.53" cy="-162" rx="248.856" ry="18"/>
<text text-anchor="middle" x="2600.53" y="-158.3" font-family="Times New Roman,serif" font-size="14.00">alice.tuplecentre.tucson.introspection4gui.Inspector4GuiObserver</text>
</g>
<!-- alice.tuplecentre.tucson.introspection4gui.Inspector4Gui&#45;&gt;alice.tuplecentre.tucson.introspection4gui.Inspector4GuiObserver -->
<g id="edge25" class="edge"><title>alice.tuplecentre.tucson.introspection4gui.Inspector4Gui&#45;&gt;alice.tuplecentre.tucson.introspection4gui.Inspector4GuiObserver</title>
<path fill="none" stroke="black" d="M2594.61,-215.697C2593.82,-207.983 2593.59,-198.712 2593.93,-190.112"/>
<polygon fill="black" stroke="black" points="2597.43,-190.324 2594.63,-180.104 2590.45,-189.836 2597.43,-190.324"/>
</g>
<!-- alice.tuplecentre.tucson.introspection4gui.Inspector4GuiObserver&#45;&gt;alice.tuplecentre.tucson.introspection.Inspector -->
<g id="edge26" class="edge"><title>alice.tuplecentre.tucson.introspection4gui.Inspector4GuiObserver&#45;&gt;alice.tuplecentre.tucson.introspection.Inspector</title>
<path fill="none" stroke="black" d="M2424.98,-149.219C2397.39,-147.429 2369.19,-145.635 2342.53,-144 2074.2,-127.539 1762.35,-110.182 1575.73,-99.9863"/>
<polygon fill="black" stroke="black" points="1575.73,-96.4814 1565.56,-99.4308 1575.35,-103.471 1575.73,-96.4814"/>
</g>
<!-- alice.tuplecentre.tucson.introspection4gui.Inspector4GuiObserver&#45;&gt;alice.tuplecentre.tucson.introspection4gui.Inspector4Gui -->
<g id="edge27" class="edge"><title>alice.tuplecentre.tucson.introspection4gui.Inspector4GuiObserver&#45;&gt;alice.tuplecentre.tucson.introspection4gui.Inspector4Gui</title>
<path fill="none" stroke="black" d="M2606.43,-180.104C2607.23,-187.791 2607.47,-197.054 2607.13,-205.665"/>
<polygon fill="black" stroke="black" points="2603.64,-205.48 2606.45,-215.697 2610.62,-205.96 2603.64,-205.48"/>
</g>
</g>
</svg>
