<?xml version="1.0" encoding="UTF-8" standalone="no"?>
<!DOCTYPE svg PUBLIC "-//W3C//DTD SVG 1.1//EN"
 "http://www.w3.org/Graphics/SVG/1.1/DTD/svg11.dtd">
<!-- Generated by graphviz version 2.38.0 (20140413.2041)
 -->
<!-- Title: %3 Pages: 1 -->
<svg width="1048pt" height="332pt"
 viewBox="0.00 0.00 1047.87 332.00" xmlns="http://www.w3.org/2000/svg" xmlns:xlink="http://www.w3.org/1999/xlink">
<g id="graph0" class="graph" transform="scale(1 1) rotate(0) translate(4 328)">
<title>%3</title>
<polygon fill="white" stroke="none" points="-4,4 -4,-328 1043.87,-328 1043.87,4 -4,4"/>
<!-- alice.tuplecentre.tucson.parsing.RespectReactionParser -->
<g id="node1" class="node"><title>alice.tuplecentre.tucson.parsing.RespectReactionParser</title>
<ellipse fill="blue" stroke="red" cx="330.281" cy="-306" rx="211.762" ry="18"/>
<text text-anchor="middle" x="330.281" y="-302.3" font-family="Times New Roman,serif" font-size="14.00">alice.tuplecentre.tucson.parsing.RespectReactionParser</text>
</g>
<!-- alice.tuplecentre.tucson.parsing.TucsonOpParser -->
<g id="node2" class="node"><title>alice.tuplecentre.tucson.parsing.TucsonOpParser</title>
<ellipse fill="blue" stroke="red" cx="663.281" cy="-162" rx="189.267" ry="18"/>
<text text-anchor="middle" x="663.281" y="-158.3" font-family="Times New Roman,serif" font-size="14.00">alice.tuplecentre.tucson.parsing.TucsonOpParser</text>
</g>
<!-- alice.tuplecentre.tucson.parsing.TucsonPrimitiveParser -->
<g id="node3" class="node"><title>alice.tuplecentre.tucson.parsing.TucsonPrimitiveParser</title>
<ellipse fill="blue" stroke="red" cx="209.281" cy="-90" rx="209.063" ry="18"/>
<text text-anchor="middle" x="209.281" y="-86.3" font-family="Times New Roman,serif" font-size="14.00">alice.tuplecentre.tucson.parsing.TucsonPrimitiveParser</text>
</g>
<!-- alice.tuplecentre.tucson.parsing.TucsonOpParser&#45;&gt;alice.tuplecentre.tucson.parsing.TucsonPrimitiveParser -->
<g id="edge2" class="edge"><title>alice.tuplecentre.tucson.parsing.TucsonOpParser&#45;&gt;alice.tuplecentre.tucson.parsing.TucsonPrimitiveParser</title>
<path fill="none" stroke="black" d="M568.661,-146.411C495.168,-135.079 393.22,-119.361 316.673,-107.558"/>
<polygon fill="black" stroke="black" points="316.937,-104.058 306.521,-105.993 315.871,-110.976 316.937,-104.058"/>
</g>
<!-- alice.tuplecentre.tucson.parsing.TupleCentreIdParser -->
<g id="node4" class="node"><title>alice.tuplecentre.tucson.parsing.TupleCentreIdParser</title>
<ellipse fill="blue" stroke="red" cx="638.281" cy="-90" rx="202.264" ry="18"/>
<text text-anchor="middle" x="638.281" y="-86.3" font-family="Times New Roman,serif" font-size="14.00">alice.tuplecentre.tucson.parsing.TupleCentreIdParser</text>
</g>
<!-- alice.tuplecentre.tucson.parsing.TucsonOpParser&#45;&gt;alice.tuplecentre.tucson.parsing.TupleCentreIdParser -->
<g id="edge3" class="edge"><title>alice.tuplecentre.tucson.parsing.TucsonOpParser&#45;&gt;alice.tuplecentre.tucson.parsing.TupleCentreIdParser</title>
<path fill="none" stroke="black" d="M657.102,-143.697C654.286,-135.813 650.89,-126.304 647.762,-117.546"/>
<polygon fill="black" stroke="black" points="651.05,-116.345 644.39,-108.104 644.457,-118.699 651.05,-116.345"/>
</g>
<!-- alice.tuplecentre.tucson.service.TucsonCmd -->
<g id="node7" class="node"><title>alice.tuplecentre.tucson.service.TucsonCmd</title>
<ellipse fill="blue" stroke="red" cx="868.281" cy="-18" rx="171.67" ry="18"/>
<text text-anchor="middle" x="868.281" y="-14.3" font-family="Times New Roman,serif" font-size="14.00">alice.tuplecentre.tucson.service.TucsonCmd</text>
</g>
<!-- alice.tuplecentre.tucson.parsing.TucsonOpParser&#45;&gt;alice.tuplecentre.tucson.service.TucsonCmd -->
<g id="edge1" class="edge"><title>alice.tuplecentre.tucson.parsing.TucsonOpParser&#45;&gt;alice.tuplecentre.tucson.service.TucsonCmd</title>
<path fill="none" stroke="black" d="M781.095,-147.815C806.519,-139.842 831.166,-127.377 849.281,-108 864.667,-91.5428 868.808,-65.8063 869.457,-46.2337"/>
<polygon fill="black" stroke="black" points="872.958,-46.1097 869.508,-36.0923 865.958,-46.0746 872.958,-46.1097"/>
</g>
<!-- alice.tuplecentre.tucson.parsing.TucsonPrimitiveParser&#45;&gt;alice.tuplecentre.tucson.service.TucsonCmd -->
<g id="edge4" class="edge"><title>alice.tuplecentre.tucson.parsing.TucsonPrimitiveParser&#45;&gt;alice.tuplecentre.tucson.service.TucsonCmd</title>
<path fill="none" stroke="black" d="M335.564,-75.5861C452.498,-63.1652 625.453,-44.7936 742.293,-32.3827"/>
<polygon fill="black" stroke="black" points="742.789,-35.8498 752.364,-31.313 742.05,-28.8889 742.789,-35.8498"/>
</g>
<!-- alice.tuplecentre.tucson.service.tools.CLIAgent -->
<g id="node5" class="node"><title>alice.tuplecentre.tucson.service.tools.CLIAgent</title>
<ellipse fill="blue" stroke="red" cx="797.281" cy="-234" rx="182.768" ry="18"/>
<text text-anchor="middle" x="797.281" y="-230.3" font-family="Times New Roman,serif" font-size="14.00">alice.tuplecentre.tucson.service.tools.CLIAgent</text>
</g>
<!-- alice.tuplecentre.tucson.service.tools.CLIAgent&#45;&gt;alice.tuplecentre.tucson.parsing.TucsonOpParser -->
<g id="edge5" class="edge"><title>alice.tuplecentre.tucson.service.tools.CLIAgent&#45;&gt;alice.tuplecentre.tucson.parsing.TucsonOpParser</title>
<path fill="none" stroke="black" d="M765.185,-216.233C747.004,-206.736 724.066,-194.753 704.558,-184.562"/>
<polygon fill="black" stroke="black" points="706.064,-181.401 695.58,-179.873 702.823,-187.605 706.064,-181.401"/>
</g>
<!-- alice.tuplecentre.tucson.service.tools.CLIAgent&#45;&gt;alice.tuplecentre.tucson.service.TucsonCmd -->
<g id="edge6" class="edge"><title>alice.tuplecentre.tucson.service.tools.CLIAgent&#45;&gt;alice.tuplecentre.tucson.service.TucsonCmd</title>
<path fill="none" stroke="black" d="M826.127,-216.132C838.988,-207.08 853.063,-194.743 861.281,-180 884.638,-138.104 879.85,-80.1142 874.139,-46.3777"/>
<polygon fill="black" stroke="black" points="877.541,-45.5277 872.287,-36.3276 870.657,-46.7964 877.541,-45.5277"/>
</g>
<!-- alice.tuplecentre.tucson.service.tools.CommandLineInterpreter -->
<g id="node6" class="node"><title>alice.tuplecentre.tucson.service.tools.CommandLineInterpreter</title>
<ellipse fill="blue" stroke="red" cx="797.281" cy="-306" rx="237.458" ry="18"/>
<text text-anchor="middle" x="797.281" y="-302.3" font-family="Times New Roman,serif" font-size="14.00">alice.tuplecentre.tucson.service.tools.CommandLineInterpreter</text>
</g>
<!-- alice.tuplecentre.tucson.service.tools.CommandLineInterpreter&#45;&gt;alice.tuplecentre.tucson.service.tools.CLIAgent -->
<g id="edge7" class="edge"><title>alice.tuplecentre.tucson.service.tools.CommandLineInterpreter&#45;&gt;alice.tuplecentre.tucson.service.tools.CLIAgent</title>
<path fill="none" stroke="black" d="M797.281,-287.697C797.281,-279.983 797.281,-270.712 797.281,-262.112"/>
<polygon fill="black" stroke="black" points="800.782,-262.104 797.281,-252.104 793.782,-262.104 800.782,-262.104"/>
</g>
</g>
</svg>
